<?xml version="1.0" encoding="UTF-8"?>
<svg version="1.1" xmlns="http://www.w3.org/2000/svg" width="395" height="323">
<path d="M0 0 C130.35 0 260.7 0 395 0 C395 106.59 395 213.18 395 323 C264.65 323 134.3 323 0 323 C0 216.41 0 109.82 0 0 Z " fill="#FEFEFE" transform="translate(0,0)"/>
<path d="M0 0 C0.495 0.99 0.495 0.99 1 2 C1.66 1.34 2.32 0.68 3 0 C7.91746739 -0.56429954 9.91810765 -0.76634041 14 2.125 C16.29742742 5.42755191 16.45761159 7.0645403 16 11 C16.825 10.505 17.65 10.01 18.5 9.5 C22.92070266 7.60541315 25.22083488 7.46898165 30 8 C33.44312714 10.1244827 34.71617547 11.14852641 36 15 C36.99 15.33 37.98 15.66 39 16 C41.83360193 20.25040289 41.41305774 24.01153346 41 29 C40 32.125 40 32.125 39 34 C40.423125 34.8971875 40.423125 34.8971875 41.875 35.8125 C45 38 45 38 47 41 C47.41203933 44.21390677 47.28103013 45.56674522 45.5 48.3125 C45.005 48.869375 44.51 49.42625 44 50 C44.33 50.33 44.66 50.66 45 51 C45.54724891 55.01315869 45.35227495 56.53375374 42.875 59.8125 C39.76348571 62.17995652 37.85364648 62.73114094 34 63 C33.96261719 63.59167969 33.92523438 64.18335938 33.88671875 64.79296875 C33.49391612 69.51430231 33.17348501 73.25982124 30 77 C28.35 77.66 26.7 78.32 25 79 C22.69 75.04 20.38 71.08 18 67 C18.845625 68.711875 19.69125 70.42375 20.5625 72.1875 C22.59120114 76.2943828 23.35606055 78.55829268 22 83 C16.26508549 83.88229454 13.23061188 81.50103025 8.7578125 78.3125 C8.17773438 77.879375 7.59765625 77.44625 7 77 C5.93072266 77.74056641 5.93072266 77.74056641 4.83984375 78.49609375 C-4.67311072 84.85940246 -4.67311072 84.85940246 -11 85 C-11.33 83.68 -11.66 82.36 -12 81 C-12.886875 80.95875 -13.77375 80.9175 -14.6875 80.875 C-18.23200909 79.93871458 -19.93259636 78.75283565 -22.1640625 75.83203125 C-23.71635112 72.43005291 -22.79806871 69.56061426 -22 66 C-22.59167969 65.90203125 -23.18335938 65.8040625 -23.79296875 65.703125 C-28.7836374 64.75872441 -32.44614275 63.88703137 -36 60 C-36.8125 57.25 -36.8125 57.25 -37 55 C-36.01 54.505 -36.01 54.505 -35 54 C-35.680625 53.113125 -36.36125 52.22625 -37.0625 51.3125 C-39 48 -39 48 -39.0625 45.375 C-37.66564686 42.25262239 -35.76459972 40.95544858 -33 39 C-32.34 38.34 -31.68 37.68 -31 37 C-31.495 36.195625 -31.99 35.39125 -32.5 34.5625 C-34.30313046 30.28006516 -34.67416888 26.59660597 -34 22 C-33.34 21.01 -32.68 20.02 -32 19 C-31.01 19 -30.02 19 -29 19 C-29.2475 18.4225 -29.495 17.845 -29.75 17.25 C-29.87375 16.13625 -29.87375 16.13625 -30 15 C-28.14944202 12.76656796 -26.59616917 11.29808458 -24 10 C-17.52941176 9.64705882 -17.52941176 9.64705882 -14 12 C-13.60167969 11.30132812 -13.20335937 10.60265625 -12.79296875 9.8828125 C-11.99826172 8.51769531 -11.99826172 8.51769531 -11.1875 7.125 C-10.66542969 6.22007813 -10.14335937 5.31515625 -9.60546875 4.3828125 C-6.88058669 0.33858364 -4.65161026 -0.25143839 0 0 Z " fill="#FBFBFB" transform="translate(182,108)"/>
<path d="M0 0 C0.495 0.99 0.495 0.99 1 2 C1.66 1.34 2.32 0.68 3 0 C7.91746739 -0.56429954 9.91810765 -0.76634041 14 2.125 C16.29742742 5.42755191 16.45761159 7.0645403 16 11 C16.825 10.505 17.65 10.01 18.5 9.5 C22.92070266 7.60541315 25.22083488 7.46898165 30 8 C33.44312714 10.1244827 34.71617547 11.14852641 36 15 C36.99 15.33 37.98 15.66 39 16 C41.83360193 20.25040289 41.41305774 24.01153346 41 29 C40 32.125 40 32.125 39 34 C40.423125 34.8971875 40.423125 34.8971875 41.875 35.8125 C45 38 45 38 47 41 C47.41203933 44.21390677 47.28103013 45.56674522 45.5 48.3125 C45.005 48.869375 44.51 49.42625 44 50 C44.33 50.33 44.66 50.66 45 51 C45.54724891 55.01315869 45.35227495 56.53375374 42.875 59.8125 C39.76348571 62.17995652 37.85364648 62.73114094 34 63 C33.96261719 63.59167969 33.92523438 64.18335938 33.88671875 64.79296875 C33.49391612 69.51430231 33.17348501 73.25982124 30 77 C28.35 77.66 26.7 78.32 25 79 C22.69 75.04 20.38 71.08 18 67 C18.845625 68.711875 19.69125 70.42375 20.5625 72.1875 C22.59120114 76.2943828 23.35606055 78.55829268 22 83 C16.26508549 83.88229454 13.23061188 81.50103025 8.7578125 78.3125 C8.17773438 77.879375 7.59765625 77.44625 7 77 C5.93072266 77.74056641 5.93072266 77.74056641 4.83984375 78.49609375 C-4.67311072 84.85940246 -4.67311072 84.85940246 -11 85 C-11.33 83.68 -11.66 82.36 -12 81 C-12.886875 80.95875 -13.77375 80.9175 -14.6875 80.875 C-18.23200909 79.93871458 -19.93259636 78.75283565 -22.1640625 75.83203125 C-23.71635112 72.43005291 -22.79806871 69.56061426 -22 66 C-22.59167969 65.90203125 -23.18335938 65.8040625 -23.79296875 65.703125 C-28.7836374 64.75872441 -32.44614275 63.88703137 -36 60 C-36.8125 57.25 -36.8125 57.25 -37 55 C-36.01 54.505 -36.01 54.505 -35 54 C-35.680625 53.113125 -36.36125 52.22625 -37.0625 51.3125 C-39 48 -39 48 -39.0625 45.375 C-37.66564686 42.25262239 -35.76459972 40.95544858 -33 39 C-32.34 38.34 -31.68 37.68 -31 37 C-31.495 36.195625 -31.99 35.39125 -32.5 34.5625 C-34.30313046 30.28006516 -34.67416888 26.59660597 -34 22 C-33.34 21.01 -32.68 20.02 -32 19 C-31.01 19 -30.02 19 -29 19 C-29.2475 18.4225 -29.495 17.845 -29.75 17.25 C-29.87375 16.13625 -29.87375 16.13625 -30 15 C-28.14944202 12.76656796 -26.59616917 11.29808458 -24 10 C-17.52941176 9.64705882 -17.52941176 9.64705882 -14 12 C-13.60167969 11.30132812 -13.20335937 10.60265625 -12.79296875 9.8828125 C-11.99826172 8.51769531 -11.99826172 8.51769531 -11.1875 7.125 C-10.66542969 6.22007813 -10.14335937 5.31515625 -9.60546875 4.3828125 C-6.88058669 0.33858364 -4.65161026 -0.25143839 0 0 Z M-6.5 4.0625 C-9.29504046 7.34667255 -10.5071107 9.99277082 -12 14 C-15.875 13.125 -15.875 13.125 -17 12 C-22.14131184 11.47186651 -22.14131184 11.47186651 -26.4375 14 C-26.953125 14.66 -27.46875 15.32 -28 16 C-24.50794062 19.59476701 -20.95966325 22.92026191 -17 26 C-16.34 26 -15.68 26 -15 26 C-15 27.32 -15 28.64 -15 30 C-16.72990025 29.06385433 -18.45888696 28.12602042 -20.1875 27.1875 C-21.15042969 26.66542969 -22.11335938 26.14335937 -23.10546875 25.60546875 C-25.77398357 24.12536134 -28.39374227 22.58662491 -31 21 C-32.56033623 22.56033623 -32.20707559 24.08947136 -32.25 26.25 C-32.22390861 30.35939356 -31.39746574 32.6035902 -29 36 C-29 36.99 -29 37.98 -29 39 C-31.9375 41.125 -31.9375 41.125 -35 43 C-36.34404775 44.11836224 -36.34404775 44.11836224 -36.125 47 C-36.34404775 49.88163776 -36.34404775 49.88163776 -35 51 C-29.70198084 51.2693908 -26.02144811 50.82598113 -21 49 C-19.68 49 -18.36 49 -17 49 C-16.67 49.99 -16.34 50.98 -16 52 C-16.6290625 52.12117188 -17.258125 52.24234375 -17.90625 52.3671875 C-23.31832326 53.42678016 -28.66171034 54.61599898 -34 56 C-33.67 57.65 -33.34 59.3 -33 61 C-31.23050388 61.50471197 -29.45934777 62.00360685 -27.6875 62.5 C-26.70136719 62.7784375 -25.71523437 63.056875 -24.69921875 63.34375 C-21.97712797 64.11812196 -21.97712797 64.11812196 -19 64 C-19.33 64.99 -19.66 65.98 -20 67 C-20.38776848 70.05783141 -20.52182959 72.95410335 -20 76 C-17.5776532 78.10361696 -16.21754366 79 -13 79 C-12.7733667 78.49025635 -12.5467334 77.9805127 -12.31323242 77.45532227 C-11.28215642 75.15268223 -10.235095 72.85766874 -9.1875 70.5625 C-8.65286133 69.35883789 -8.65286133 69.35883789 -8.10742188 68.13085938 C-7.75615234 67.36708984 -7.40488281 66.60332031 -7.04296875 65.81640625 C-6.72352295 65.10943604 -6.40407715 64.40246582 -6.07495117 63.67407227 C-5 62 -5 62 -2 61 C-2.32613281 61.83402344 -2.65226562 62.66804688 -2.98828125 63.52734375 C-5.49143512 69.97351876 -7.88027314 76.41769029 -10 83 C-4.66368708 82.73318435 -1.8826738 80.67709298 2.0703125 77.375 C4.16492373 75.88248349 5.42858053 75.16541295 8 75 C9.96484375 76.21484375 9.96484375 76.21484375 11.9375 77.9375 C14.40674461 80.09256637 15.43745992 80.96090147 18.75390625 81.19140625 C19.49511719 81.12824219 20.23632812 81.06507813 21 81 C18.60309494 73.55697903 15.84737559 66.28162848 13 59 C13.99 59 14.98 59 16 59 C16.25523437 59.52078125 16.51046875 60.0415625 16.7734375 60.578125 C18.33688094 63.66517892 19.98081695 66.70521658 21.625 69.75 C22.11226562 70.65298828 22.11226562 70.65298828 22.609375 71.57421875 C23.40570585 73.04977297 24.20277839 74.52492686 25 76 C26.94074861 75.72382467 26.94074861 75.72382467 29 75 C31.35119399 71.47320901 31.21443452 69.97120515 31.125 65.8125 C31.10695313 64.72582031 31.08890625 63.63914063 31.0703125 62.51953125 C31.04710937 61.68808594 31.02390625 60.85664063 31 60 C31.61488281 60.03480469 32.22976562 60.06960937 32.86328125 60.10546875 C34.07564453 60.14607422 34.07564453 60.14607422 35.3125 60.1875 C36.11300781 60.22230469 36.91351563 60.25710937 37.73828125 60.29296875 C40.06535341 60.1811409 40.06535341 60.1811409 41.78125 58.65625 C43.44546615 56.39462293 43.22189312 54.73668179 43 52 C37.88057575 49.20541538 32.74870061 47.77801086 27.12695312 46.45117188 C25.4031544 46.02322982 23.69906992 45.51747259 22 45 C21.67 44.34 21.34 43.68 21 43 C22.15757812 43.20496094 23.31515625 43.40992188 24.5078125 43.62109375 C26.04687228 43.89324456 27.58593493 44.16537912 29.125 44.4375 C29.88554687 44.57220703 30.64609375 44.70691406 31.4296875 44.84570312 C32.92446043 45.10986558 34.41957298 45.37211444 35.91503906 45.63232422 C37.77667038 45.96061658 39.63472836 46.30902583 41.4921875 46.66015625 C42.31976563 46.77230469 43.14734375 46.88445312 44 47 C45.22514289 45.96123766 45.22514289 45.96123766 45.4375 43.75 C45.23367269 40.68032891 45.23367269 40.68032891 42.1875 38.3125 C40.15259472 36.83619617 38.09179372 35.39452915 36 34 C36 33.01 36 32.02 36 31 C36.495 30.608125 36.99 30.21625 37.5 29.8125 C39.99725818 26.79497969 39.24273727 23.82311197 39 20 C38.505 19.01 38.505 19.01 38 18 C33.27645483 18.48094278 30.90678468 20.42549873 27.375 23.5 C22.28816467 27.90394511 22.28816467 27.90394511 19 29 C19 28.01 19 27.02 19 26 C21.30078125 23.87890625 21.30078125 23.87890625 24.3125 21.5625 C27.72211633 18.92840425 30.59854477 16.59808479 33 13 C30.3990807 10.50311747 29.10495017 10.00920616 25.4375 9.6875 C21.88020391 9.73529772 21.88020391 9.73529772 19 12 C17.68 12 16.36 12 15 12 C14.9175 10.906875 14.835 9.81375 14.75 8.6875 C14.32656162 5.05330115 14.32656162 5.05330115 12.3125 3.0625 C9.51547468 1.58249983 9.51547468 1.58249983 4 2 C3.34 8.93 2.68 15.86 2 23 C1.01 23.33 0.02 23.66 -1 24 C-1 16.74 -1 9.48 -1 2 C-4.15447553 1.68180852 -4.15447553 1.68180852 -6.5 4.0625 Z " fill="#1D1D1D" transform="translate(182,108)"/>
<path d="M0 0 C0.66 1.98 1.32 3.96 2 6 C1.67 6 1.34 6 1 6 C0.67 11.94 0.34 17.88 0 24 C-0.33 24 -0.66 24 -1 24 C-1 16.74 -1 9.48 -1 2 C-7.0303186 4.64308956 -7.0303186 4.64308956 -9.125 9.625 C-9.9453125 12.0390625 -9.9453125 12.0390625 -11 14 C-12.9921875 14.8984375 -12.9921875 14.8984375 -15 15 C-15.66 14.34 -16.32 13.68 -17 13 C-21.79834561 12.45185969 -21.79834561 12.45185969 -25.9375 14.5 C-26.288125 14.995 -26.63875 15.49 -27 16 C-23.70020671 19.49978076 -20.45515004 22.16516341 -16.35546875 24.69140625 C-15.90816406 25.12324219 -15.46085937 25.55507812 -15 26 C-15 27.32 -15 28.64 -15 30 C-18.91114026 29.32599282 -21.87119182 27.45743967 -25.25 25.4375 C-26.32765625 24.79683594 -27.4053125 24.15617187 -28.515625 23.49609375 C-29.33546875 23.00238281 -30.1553125 22.50867188 -31 22 C-31.33694371 27.72804306 -31.2244136 31.09328365 -28 36 C-27.9375 38.0625 -27.9375 38.0625 -29 40 C-30.010625 40.61875 -31.02125 41.2375 -32.0625 41.875 C-33.031875 42.57625 -34.00125 43.2775 -35 44 C-35.50169415 47.16926564 -35.50169415 47.16926564 -35 50 C-29.30814452 50.20048196 -29.30814452 50.20048196 -23.8125 48.9375 C-20.70383757 47.90127919 -19.09989639 48.08826577 -16 49 C-16 49.99 -16 50.98 -16 52 C-22.01339937 53.95928381 -27.69632197 55.41632611 -34 56 C-33.67 57.32 -33.34 58.64 -33 60 C-28.38 61.32 -23.76 62.64 -19 64 C-19.5859375 72.49609375 -19.5859375 72.49609375 -20 75 C-20.99 75.495 -20.99 75.495 -22 76 C-23.125 69.375 -23.125 69.375 -22 66 C-22.59167969 65.90203125 -23.18335938 65.8040625 -23.79296875 65.703125 C-28.7836374 64.75872441 -32.44614275 63.88703137 -36 60 C-36.8125 57.25 -36.8125 57.25 -37 55 C-36.01 54.505 -36.01 54.505 -35 54 C-35.680625 53.113125 -36.36125 52.22625 -37.0625 51.3125 C-39 48 -39 48 -39.0625 45.375 C-37.66564686 42.25262239 -35.76459972 40.95544858 -33 39 C-32.34 38.34 -31.68 37.68 -31 37 C-31.495 36.195625 -31.99 35.39125 -32.5 34.5625 C-34.30313046 30.28006516 -34.67416888 26.59660597 -34 22 C-33.34 21.01 -32.68 20.02 -32 19 C-31.01 19 -30.02 19 -29 19 C-29.2475 18.4225 -29.495 17.845 -29.75 17.25 C-29.87375 16.13625 -29.87375 16.13625 -30 15 C-28.14944202 12.76656796 -26.59616917 11.29808458 -24 10 C-17.52941176 9.64705882 -17.52941176 9.64705882 -14 12 C-13.60167969 11.30132812 -13.20335937 10.60265625 -12.79296875 9.8828125 C-11.99826172 8.51769531 -11.99826172 8.51769531 -11.1875 7.125 C-10.66542969 6.22007813 -10.14335937 5.31515625 -9.60546875 4.3828125 C-6.88058669 0.33858364 -4.65161026 -0.25143839 0 0 Z " fill="#1F1F1F" transform="translate(182,108)"/>
<path d="M0 0 C0.721875 0.144375 1.44375 0.28875 2.1875 0.4375 C4.9532788 1.05196096 4.9532788 1.05196096 7.625 1.1875 C10 2 10 2 11.875 4.75 C13.04958369 8.14324178 13.08664802 9.64126977 12 13 C11.34 13 10.68 13 10 13 C9.67 14.65 9.34 16.3 9 18 C8.278125 17.979375 7.55625 17.95875 6.8125 17.9375 C4.08074862 17.99820559 1.65743909 18.39258535 -1 19 C-1.33 17.68 -1.66 16.36 -2 15 C-3.32 14.67 -4.64 14.34 -6 14 C-6.05399736 12.54207116 -6.09279177 11.08357288 -6.125 9.625 C-6.15980469 8.40683594 -6.15980469 8.40683594 -6.1953125 7.1640625 C-6 5 -6 5 -4 3 C-3.01 3 -2.02 3 -1 3 C-0.67 2.01 -0.34 1.02 0 0 Z " fill="#080808" transform="translate(183,140)"/>
<path d="M0 0 C0.99 0 1.98 0 3 0 C2.49487476 6.22987798 -0.32604123 11.45474233 -3 17 C-3.99 17 -4.98 17 -6 17 C-6.66 17.99 -7.32 18.98 -8 20 C-11.68754757 19.50168276 -13.60490662 18.89932357 -16 16 C-15.67 15.34 -15.34 14.68 -15 14 C-11.535 15.98 -11.535 15.98 -8 18 C-7.73445312 17.14148438 -7.46890625 16.28296875 -7.1953125 15.3984375 C-5.98976199 11.97089192 -4.52755614 8.85826202 -2.875 5.625 C-2.33617187 4.56539062 -1.79734375 3.50578125 -1.2421875 2.4140625 C-0.83226562 1.61742187 -0.42234375 0.82078125 0 0 Z " fill="#0F0F0F" transform="translate(177,169)"/>
<path d="M0 0 C0.66 0.33 1.32 0.66 2 1 C1.67 1.66 1.34 2.32 1 3 C0.01 3 -0.98 3 -2 3 C-1.67 4.32 -1.34 5.64 -1 7 C3.62 8.32 8.24 9.64 13 11 C12.4140625 19.49609375 12.4140625 19.49609375 12 22 C11.34 22.33 10.68 22.66 10 23 C8.875 16.375 8.875 16.375 10 13 C9.40832031 12.90203125 8.81664062 12.8040625 8.20703125 12.703125 C3.2163626 11.75872441 -0.44614275 10.88703137 -4 7 C-4.8125 4.25 -4.8125 4.25 -5 2 C-2.625 0.9375 -2.625 0.9375 0 0 Z " fill="#282828" transform="translate(150,161)"/>
<path d="M0 0 C0 0.99 0 1.98 0 3 C-1.55966218 3.508783 -3.12289241 4.00663469 -4.6875 4.5 C-5.99267578 4.91765625 -5.99267578 4.91765625 -7.32421875 5.34375 C-9.99391677 5.99850805 -12.26396684 6.11831495 -15 6 C-15 5.67 -15 5.34 -15 5 C-16.4540625 4.5978125 -16.4540625 4.5978125 -17.9375 4.1875 C-18.948125 3.795625 -19.95875 3.40375 -21 3 C-21.33 2.01 -21.66 1.02 -22 0 C-21.01 0.33 -20.02 0.66 -19 1 C-14.77816842 1.20763106 -11.82488553 1.27496184 -7.8125 -0.0625 C-4.70383757 -1.09872081 -3.09989639 -0.91173423 0 0 Z " fill="#0E0E0E" transform="translate(166,157)"/>
<path d="M0 0 C0.721875 0.103125 1.44375 0.20625 2.1875 0.3125 C2.8475 2.2925 3.5075 4.2725 4.1875 6.3125 C3.8575 6.3125 3.5275 6.3125 3.1875 6.3125 C2.8575 12.2525 2.5275 18.1925 2.1875 24.3125 C1.8575 24.3125 1.5275 24.3125 1.1875 24.3125 C1.1875 17.0525 1.1875 9.7925 1.1875 2.3125 C-5.16618189 5.46836412 -5.16618189 5.46836412 -7.8125 11.3125 C-8.4725 11.3125 -9.1325 11.3125 -9.8125 11.3125 C-8.40722951 5.81916992 -6.17276971 0.6858633 0 0 Z " fill="#3E3E3E" transform="translate(179.8125,107.6875)"/>
<path d="M0 0 C0 6.27 0 12.54 0 19 C-0.99 19.33 -1.98 19.66 -3 20 C-3 13.73 -3 7.46 -3 1 C-1 0 -1 0 0 0 Z " fill="#0E0E0E" transform="translate(185,112)"/>
<path d="M0 0 C3.3 0 6.6 0 10 0 C9.67 0.66 9.34 1.32 9 2 C5.9375 2.625 5.9375 2.625 3 3 C2.95101562 3.62648437 2.90203125 4.25296875 2.8515625 4.8984375 C2.77679688 5.71570313 2.70203125 6.53296875 2.625 7.375 C2.55539063 8.18710938 2.48578125 8.99921875 2.4140625 9.8359375 C2 12 2 12 0 14 C-1.41778293 11.16443413 -0.86257622 9.0091294 -0.5625 5.875 C-0.46066406 4.77929688 -0.35882813 3.68359375 -0.25390625 2.5546875 C-0.17011719 1.71164063 -0.08632812 0.86859375 0 0 Z " fill="#3B3B3B" transform="translate(213,168)"/>
<path d="M0 0 C6.92307692 3.07692308 6.92307692 3.07692308 9 7 C9.4375 9.5625 9.4375 9.5625 9 12 C7 13.8125 7 13.8125 5 15 C4.01 14.34 3.02 13.68 2 13 C3.32 12.67 4.64 12.34 6 12 C6.50379029 9.71305777 6.50379029 9.71305777 6 7 C4.15422049 5.10025032 2.10607164 3.62343022 0 2 C0 1.34 0 0.68 0 0 Z " fill="#111111" transform="translate(220,142)"/>
<path d="M0 0 C1.03125 0.639375 2.0625 1.27875 3.125 1.9375 C6.38609658 3.81711371 9.22046944 4.63126531 13 5 C13 6.32 13 7.64 13 9 C9.55251042 8.35952602 7.15355815 7.00294981 4.25 5.0625 C3.45078125 4.53785156 2.6515625 4.01320312 1.828125 3.47265625 C1.22484375 2.98667969 0.6215625 2.50070313 0 2 C0 1.34 0 0.68 0 0 Z " fill="#101010" transform="translate(154,129)"/>
<path d="M0 0 C1.03125 0.61875 2.0625 1.2375 3.125 1.875 C6.31472483 3.70698045 9.45888021 4.9635747 13 6 C13 5.34 13 4.68 13 4 C13.66 4 14.32 4 15 4 C14.67 5.32 14.34 6.64 14 8 C9.48708152 8.67693777 7.19111429 7.73930443 3.625 5.125 C1.5390625 3.5078125 1.5390625 3.5078125 0 2 C0 1.34 0 0.68 0 0 Z " fill="#151515" transform="translate(190,183)"/>
<path d="M0 0 C-0.11351517 1.81325551 -0.24112961 3.62563357 -0.375 5.4375 C-0.44460937 6.44683594 -0.51421875 7.45617187 -0.5859375 8.49609375 C-0.72257813 9.32238281 -0.85921875 10.14867187 -1 11 C-1.99 11.495 -1.99 11.495 -3 12 C-4.125 5.375 -4.125 5.375 -3 2 C-3.66 1.67 -4.32 1.34 -5 1 C-2 0 -2 0 0 0 Z " fill="#3F3F3F" transform="translate(163,172)"/>
<path d="M0 0 C2.64 0 5.28 0 8 0 C8 0.99 8 1.98 8 3 C5.69 2.67 3.38 2.34 1 2 C1 3.98 1 5.96 1 8 C-0.42944945 5.64561267 -1.08661261 4.51967567 -0.625 1.75 C-0.41875 1.1725 -0.2125 0.595 0 0 Z " fill="#2D2D2D" transform="translate(185,108)"/>
<path d="M0 0 C2.31 0.66 4.62 1.32 7 2 C5.125 3.0625 5.125 3.0625 3 4 C2.34 3.67 1.68 3.34 1 3 C0.67 4.98 0.34 6.96 0 9 C-1.125 7.3125 -1.125 7.3125 -2 5 C-1.125 2.25 -1.125 2.25 0 0 Z " fill="#393939" transform="translate(150,127)"/>
<path d="M0 0 C0.99 0.33 1.98 0.66 3 1 C2.01 3.31 1.02 5.62 0 8 C-0.99 7.34 -1.98 6.68 -3 6 C-2.67 4.68 -2.34 3.36 -2 2 C-1.34 2 -0.68 2 0 2 C0 1.34 0 0.68 0 0 Z " fill="#272727" transform="translate(220,136)"/>
<path d="M0 0 C0.99 0 1.98 0 3 0 C3.66 1.32 4.32 2.64 5 4 C4.01 4.495 4.01 4.495 3 5 C2.67 5.66 2.34 6.32 2 7 C0 4 0 4 0 0 Z " fill="#121212" transform="translate(195,167)"/>
<path d="M0 0 C-0.33 0.66 -0.66 1.32 -1 2 C-3.32156597 2.40729228 -5.6568787 2.74438677 -8 3 C-7.67 2.01 -7.34 1.02 -7 0 C-3.86650268 -1.04449911 -3.01031744 -0.93423645 0 0 Z " fill="#3D3D3D" transform="translate(165,157)"/>
<path d="M0 0 C0.33 0.99 0.66 1.98 1 3 C-0.98 3.99 -2.96 4.98 -5 6 C-5.33 4.68 -5.66 3.36 -6 2 C-4.7934375 1.7834375 -4.7934375 1.7834375 -3.5625 1.5625 C-1.07896294 1.25864751 -1.07896294 1.25864751 0 0 Z " fill="#191919" transform="translate(212,181)"/>
<path d="M0 0 C3.465 1.98 3.465 1.98 7 4 C7 4.99 7 5.98 7 7 C5.82780457 6.21654285 4.66236332 5.42297164 3.5 4.625 C2.8503125 4.18414062 2.200625 3.74328125 1.53125 3.2890625 C1.0259375 2.86367187 0.520625 2.43828125 0 2 C0 1.34 0 0.68 0 0 Z " fill="#161616" transform="translate(154,129)"/>
<path d="M0 0 C0.99 0.33 1.98 0.66 3 1 C2.67 2.65 2.34 4.3 2 6 C1.01 5.67 0.02 5.34 -1 5 C-0.67 3.35 -0.34 1.7 0 0 Z " fill="#454545" transform="translate(144,151)"/>
</svg>
